<?xml version="1.0" encoding="UTF-8" standalone="no"?>
<svg
   version="1.1"
   viewBox="0 0 340.19559 74.722125"
   id="svg336"
   sodipodi:docname="onePopStopShop_logo_wide.svg"
   inkscape:version="1.2.2 (b0a8486541, 2022-12-01)"
   width="340.19559"
   height="74.722122"
   xmlns:inkscape="http://www.inkscape.org/namespaces/inkscape"
   xmlns:sodipodi="http://sodipodi.sourceforge.net/DTD/sodipodi-0.dtd"
   xmlns="http://www.w3.org/2000/svg"
   xmlns:svg="http://www.w3.org/2000/svg">
  <defs
     id="defs340" />
  <sodipodi:namedview
     id="namedview338"
     pagecolor="#505050"
     bordercolor="#ffffff"
     borderopacity="1"
     inkscape:showpageshadow="0"
     inkscape:pageopacity="0"
     inkscape:pagecheckerboard="1"
     inkscape:deskcolor="#505050"
     showgrid="false"
     inkscape:zoom="2.0497936"
     inkscape:cx="99.522216"
     inkscape:cy="54.883575"
     inkscape:window-width="1865"
     inkscape:window-height="1012"
     inkscape:window-x="55"
     inkscape:window-y="32"
     inkscape:window-maximized="1"
     inkscape:current-layer="svg336" />
  <g
     id="g519"
     transform="translate(-75.499,-2.5667669e-4)">
    <path
       d="M 140.59404,55.910327 108.12468,74.296202 75.638777,55.938757 75.622296,19.195619 108.09169,0.80983532 140.57759,19.16728 Z"
       fill="#fcc68f"
       id="path316"
       style="stroke-width:0.982529" />
    <path
       d="m 106.522,1.43 c -0.871,0.433 -1.766,0.905 -1.988,1.049 -0.221,0.144 -2.399,1.414 -4.838,2.822 -2.44,1.408 -4.617,2.683 -4.839,2.834 -0.222,0.15 -0.766,0.455 -1.21,0.679 -0.443,0.223 -1.169,0.643 -1.613,0.932 -0.443,0.29 -0.988,0.612 -1.209,0.715 -0.222,0.104 -1.711,0.953 -3.31,1.886 -2.712,1.583 -4.485,2.6 -6.099,3.501 -0.37,0.206 -1.035,0.6 -1.478,0.876 C 79.494,17 78.496,17.557 77.72,17.962 L 76.308,18.7 v 18.597 c 0,20.165 -0.083,18.952 1.345,19.583 0.221,0.098 0.766,0.412 1.209,0.698 0.444,0.286 1.109,0.688 1.479,0.894 1.941,1.081 8.696,4.998 10.484,6.079 0.517,0.313 1.303,0.751 1.747,0.975 0.862,0.433 1.228,0.652 3.038,1.809 0.635,0.406 1.217,0.739 1.293,0.739 0.117,0 5.33,2.993 6.556,3.764 0.222,0.139 0.987,0.559 1.701,0.932 0.714,0.374 1.557,0.861 1.874,1.083 0.317,0.222 0.825,0.404 1.129,0.404 0.304,0 0.812,-0.182 1.129,-0.404 0.317,-0.222 1.161,-0.711 1.875,-1.087 0.713,-0.376 1.66,-0.919 2.104,-1.207 0.443,-0.287 0.988,-0.607 1.21,-0.71 0.221,-0.103 2.01,-1.133 3.975,-2.288 1.965,-1.155 3.649,-2.1 3.743,-2.1 0.093,0 0.36,-0.164 0.594,-0.365 0.233,-0.201 1.21,-0.791 2.171,-1.312 1.905,-1.032 9.028,-5.144 9.678,-5.586 0.222,-0.151 0.766,-0.457 1.209,-0.681 0.444,-0.223 1.17,-0.643 1.613,-0.931 0.444,-0.289 1.107,-0.656 1.473,-0.815 1.087,-0.472 1.073,-0.21 1.077,-19.494 l 0.004,-18.566 -0.874,-0.444 c -0.48,-0.244 -1.478,-0.809 -2.217,-1.256 -0.739,-0.446 -1.526,-0.893 -1.748,-0.994 -0.382,-0.172 -7.748,-4.409 -8.602,-4.948 -0.221,-0.14 -0.645,-0.377 -0.941,-0.526 -0.295,-0.15 -0.9,-0.509 -1.344,-0.798 C 123.849,9.456 123.123,9.037 122.679,8.814 122.236,8.59 121.692,8.285 121.47,8.136 121.248,7.987 119.373,6.89 117.303,5.699 115.233,4.507 113.358,3.418 113.136,3.28 112.915,3.142 112.37,2.846 111.927,2.622 111.483,2.399 110.697,1.959 110.179,1.645 108.458,0.6 108.222,0.587 106.522,1.43 m 4.106,4.15 c 1.158,0.669 2.287,1.339 2.508,1.489 0.222,0.149 0.736,0.415 1.143,0.59 0.406,0.175 0.739,0.412 0.739,0.528 0,0.115 0.126,0.21 0.28,0.21 0.231,0 7.227,3.945 8.591,4.845 0.222,0.146 0.706,0.412 1.075,0.591 0.37,0.179 1.036,0.593 1.48,0.92 0.444,0.328 1.11,0.725 1.479,0.883 0.369,0.157 0.852,0.401 1.074,0.542 1.303,0.827 6.487,3.778 6.635,3.778 1.164,0 1.16,-0.06 1.16,17.444 v 16.555 l -1.265,1.146 c -0.696,0.63 -1.479,1.145 -1.74,1.145 -0.394,0 -3.584,1.7 -5.059,2.696 -0.222,0.149 -0.766,0.455 -1.21,0.678 -0.443,0.224 -1.169,0.643 -1.613,0.933 -0.443,0.289 -0.988,0.606 -1.209,0.703 -0.222,0.098 -1.388,0.764 -2.592,1.482 -1.203,0.717 -2.255,1.304 -2.338,1.304 -0.083,0 -0.681,0.357 -1.328,0.794 -0.647,0.437 -1.773,1.106 -2.5,1.486 -0.728,0.381 -1.505,0.807 -1.726,0.948 -0.616,0.391 -3.201,1.865 -4.706,2.683 -0.861,0.468 -1.49,0.654 -1.747,0.516 -0.918,-0.494 -5.272,-2.965 -5.644,-3.204 -0.222,-0.142 -0.766,-0.439 -1.21,-0.66 -0.443,-0.221 -0.988,-0.523 -1.209,-0.671 -0.6,-0.4 -7.597,-4.449 -8.065,-4.667 -0.222,-0.104 -0.766,-0.425 -1.21,-0.714 -0.443,-0.29 -1.229,-0.747 -1.747,-1.016 -1.732,-0.902 -8.193,-4.722 -8.669,-5.126 -0.694,-0.588 -0.732,-33.366 -0.039,-33.941 0.462,-0.383 1.329,-0.914 1.988,-1.216 0.221,-0.101 1.387,-0.771 2.591,-1.489 1.203,-0.717 2.256,-1.304 2.34,-1.304 0.084,0 0.611,-0.314 1.172,-0.699 0.561,-0.384 1.262,-0.81 1.558,-0.947 0.296,-0.137 1.021,-0.542 1.613,-0.901 0.591,-0.359 1.257,-0.742 1.478,-0.851 0.222,-0.109 2.116,-1.204 4.208,-2.432 2.092,-1.229 3.937,-2.234 4.099,-2.234 0.163,0 0.295,-0.107 0.295,-0.238 0,-0.13 0.212,-0.307 0.471,-0.392 0.259,-0.084 0.954,-0.452 1.546,-0.817 0.591,-0.365 1.717,-0.999 2.503,-1.408 0.785,-0.41 1.488,-0.842 1.561,-0.961 0.283,-0.458 1.21,-0.172 3.239,0.999 m -4.065,1.904 c -0.733,0.394 -1.498,0.881 -1.7,1.083 -0.202,0.202 -0.467,0.367 -0.588,0.367 -0.187,0 -8.186,4.564 -9.418,5.373 -0.222,0.146 -0.827,0.485 -1.344,0.755 -0.518,0.269 -2.695,1.518 -4.839,2.775 -2.144,1.257 -4.079,2.37 -4.301,2.474 -0.222,0.104 -0.766,0.428 -1.21,0.72 -0.443,0.292 -0.957,0.607 -1.142,0.698 -0.437,0.216 -0.498,31.56 -0.062,31.56 0.151,0 0.786,0.327 1.411,0.727 0.626,0.4 1.5,0.924 1.944,1.164 2.26,1.224 3.328,1.834 4.363,2.493 0.625,0.398 1.252,0.724 1.392,0.724 0.14,0 0.415,0.159 0.61,0.354 0.195,0.195 1.323,0.878 2.506,1.517 1.183,0.639 2.671,1.508 3.306,1.93 0.636,0.423 1.223,0.769 1.306,0.769 0.122,0 5.035,2.839 6.544,3.781 0.222,0.139 0.663,0.365 0.982,0.504 0.318,0.138 0.658,0.38 0.755,0.537 0.097,0.157 0.585,0.285 1.085,0.285 0.5,0 0.989,-0.128 1.086,-0.285 0.097,-0.157 0.437,-0.401 0.755,-0.542 0.318,-0.141 0.942,-0.495 1.385,-0.787 0.444,-0.292 1.109,-0.682 1.479,-0.867 0.708,-0.354 8.986,-5.137 9.677,-5.591 0.222,-0.145 0.585,-0.344 0.806,-0.441 0.222,-0.098 2.118,-1.186 4.213,-2.418 2.095,-1.233 3.873,-2.241 3.952,-2.241 0.078,0 0.68,-0.363 1.337,-0.806 0.657,-0.444 1.328,-0.807 1.492,-0.807 0.457,0 0.418,-31.334 -0.039,-31.56 -0.185,-0.091 -0.699,-0.406 -1.143,-0.698 -0.443,-0.292 -0.988,-0.613 -1.209,-0.712 -0.222,-0.1 -1.706,-0.948 -3.297,-1.885 -1.591,-0.937 -2.973,-1.704 -3.07,-1.704 -0.097,0 -0.368,-0.167 -0.601,-0.37 -0.234,-0.204 -1.272,-0.822 -2.307,-1.374 -1.035,-0.552 -2.401,-1.353 -3.037,-1.78 -0.636,-0.428 -1.219,-0.777 -1.295,-0.777 -0.076,0 -1.453,-0.776 -3.06,-1.724 -1.607,-0.948 -3.171,-1.802 -3.477,-1.899 -0.305,-0.097 -0.555,-0.281 -0.555,-0.409 0,-0.128 -0.272,-0.316 -0.605,-0.417 -0.333,-0.102 -0.786,-0.342 -1.008,-0.535 -0.817,-0.71 -1.704,-0.699 -3.079,0.039 m 3.283,1.95 c 1.294,0.763 2.661,1.539 5.105,2.899 1.386,0.771 10.162,5.875 10.82,6.293 0.222,0.141 0.645,0.364 0.941,0.497 0.295,0.133 0.996,0.556 1.557,0.94 0.561,0.385 1.09,0.699 1.175,0.699 0.271,0 3.443,1.972 3.648,2.269 0.235,0.339 0.278,28.144 0.044,28.753 -0.088,0.231 -1.268,1.057 -2.621,1.836 -1.352,0.779 -2.701,1.563 -2.997,1.742 -0.296,0.179 -0.719,0.41 -0.941,0.514 -0.394,0.184 -9.151,5.256 -9.946,5.761 -0.222,0.14 -0.645,0.365 -0.941,0.5 -0.296,0.134 -2.098,1.159 -4.006,2.278 l -3.469,2.034 -1.639,-0.867 c -0.901,-0.477 -2.241,-1.261 -2.976,-1.741 -0.736,-0.481 -1.445,-0.874 -1.574,-0.874 -0.13,0 -0.774,-0.363 -1.431,-0.807 -0.657,-0.443 -1.256,-0.806 -1.33,-0.806 -0.074,0 -1.912,-1.053 -4.086,-2.34 -2.173,-1.287 -4.375,-2.561 -4.892,-2.831 -0.518,-0.27 -1.304,-0.728 -1.747,-1.018 -0.444,-0.289 -0.988,-0.611 -1.21,-0.715 -1.213,-0.568 -3.675,-2.093 -3.965,-2.456 -0.375,-0.47 -0.501,-28.428 -0.13,-28.963 0.205,-0.297 3.376,-2.269 3.648,-2.269 0.085,0 0.613,-0.314 1.174,-0.699 0.561,-0.384 1.262,-0.814 1.558,-0.954 0.296,-0.141 1.021,-0.55 1.613,-0.909 0.591,-0.359 1.257,-0.74 1.478,-0.847 0.222,-0.106 2.73,-1.56 5.573,-3.231 2.843,-1.67 5.229,-3.037 5.302,-3.037 0.073,0 1.013,-0.541 2.089,-1.203 2.318,-1.425 2.489,-1.443 4.176,-0.448"
       fill="#329885"
       fill-rule="evenodd"
       id="path318" />
    <path
       d="m 106.922,0.422 c -0.65,0.32 -1.221,0.673 -1.271,0.784 -0.049,0.111 -0.242,0.201 -0.428,0.201 -0.187,0 -0.559,0.242 -0.826,0.538 -0.268,0.296 -0.695,0.538 -0.95,0.538 -0.254,0 -0.609,0.176 -0.789,0.392 -0.179,0.217 -0.587,0.475 -0.906,0.574 -0.32,0.099 -1.022,0.527 -1.56,0.951 -0.539,0.424 -1.167,0.771 -1.396,0.771 -0.229,0 -0.485,0.111 -0.569,0.248 -0.084,0.136 -0.913,0.618 -1.842,1.07 -0.928,0.453 -1.93,1.048 -2.226,1.324 -0.296,0.275 -0.861,0.671 -1.256,0.878 -0.395,0.208 -1.624,0.846 -2.732,1.419 -1.107,0.572 -2.219,1.268 -2.47,1.545 -0.252,0.278 -0.673,0.505 -0.937,0.505 -0.265,0 -0.546,0.105 -0.625,0.234 -0.08,0.129 -0.843,0.578 -1.696,0.998 -0.853,0.421 -1.992,1.102 -2.531,1.514 -0.539,0.412 -1.125,0.749 -1.302,0.749 -0.177,0 -0.629,0.242 -1.005,0.537 -0.376,0.296 -0.82,0.538 -0.986,0.538 -0.167,0 -0.631,0.304 -1.032,0.676 -0.4,0.371 -1.034,0.792 -1.408,0.934 l -0.68,0.258 V 56.47 l 1.744,0.85 c 0.96,0.467 1.814,0.961 1.898,1.098 0.084,0.136 0.382,0.247 0.662,0.247 0.279,0 0.605,0.159 0.723,0.354 0.22,0.36 3.353,2.335 3.706,2.335 0.107,0 0.653,0.363 1.213,0.806 0.56,0.444 1.198,0.807 1.417,0.807 0.22,0 0.55,0.181 0.734,0.403 0.184,0.222 0.485,0.403 0.669,0.403 0.183,0 0.641,0.242 1.017,0.538 0.376,0.295 0.821,0.537 0.988,0.537 0.261,0 1.757,0.931 2.165,1.347 0.073,0.075 0.832,0.484 1.685,0.909 0.854,0.424 1.617,0.876 1.696,1.005 0.08,0.129 0.361,0.234 0.625,0.234 0.264,0 0.699,0.242 0.967,0.537 0.267,0.296 0.649,0.538 0.848,0.538 0.199,0 0.361,0.121 0.361,0.269 0,0.148 0.173,0.269 0.384,0.269 0.212,0 0.55,0.165 0.752,0.368 0.202,0.202 0.659,0.46 1.015,0.573 0.356,0.113 0.812,0.37 1.015,0.573 0.202,0.202 0.57,0.371 0.819,0.375 0.248,0.004 0.804,0.367 1.235,0.806 0.431,0.44 0.999,0.799 1.261,0.799 0.262,0 0.552,0.122 0.644,0.271 0.823,1.332 4.011,1.336 4.832,0.007 0.095,-0.153 0.378,-0.278 0.629,-0.278 0.252,0 0.763,-0.283 1.137,-0.63 0.374,-0.346 1.004,-0.8 1.401,-1.008 0.396,-0.208 1.42,-0.741 2.274,-1.184 0.855,-0.444 1.594,-0.897 1.644,-1.008 0.049,-0.111 0.242,-0.202 0.428,-0.202 0.187,0 0.558,-0.242 0.826,-0.538 0.268,-0.295 0.703,-0.537 0.967,-0.537 0.264,0 0.545,-0.105 0.624,-0.234 0.08,-0.129 0.843,-0.581 1.696,-1.005 0.854,-0.425 1.612,-0.834 1.686,-0.909 0.408,-0.416 1.904,-1.347 2.165,-1.347 0.167,0 0.612,-0.242 0.988,-0.537 0.375,-0.296 0.818,-0.54 0.983,-0.542 0.165,-0.003 0.709,-0.366 1.21,-0.807 0.5,-0.441 1.128,-0.802 1.395,-0.802 0.267,0 0.554,-0.11 0.637,-0.245 0.084,-0.136 0.709,-0.516 1.39,-0.845 0.681,-0.33 1.77,-1.006 2.42,-1.502 0.65,-0.496 1.356,-0.903 1.567,-0.903 0.212,0 0.454,-0.111 0.539,-0.247 0.084,-0.137 0.938,-0.631 1.897,-1.098 l 1.745,-0.85 V 18.598 l -0.679,-0.258 c -0.374,-0.142 -0.948,-0.516 -1.277,-0.831 -0.329,-0.315 -0.983,-0.739 -1.453,-0.941 -0.471,-0.202 -0.932,-0.49 -1.024,-0.64 -0.093,-0.151 -0.389,-0.273 -0.658,-0.273 -0.269,0 -0.639,-0.182 -0.823,-0.404 -0.184,-0.221 -0.501,-0.403 -0.703,-0.403 -0.202,0 -0.923,-0.423 -1.601,-0.941 -0.678,-0.517 -1.39,-0.94 -1.582,-0.94 -0.192,0 -0.5,-0.182 -0.684,-0.404 -0.184,-0.221 -0.543,-0.403 -0.798,-0.403 -0.255,0 -0.675,-0.234 -0.934,-0.52 -0.259,-0.286 -0.994,-0.766 -1.633,-1.067 -0.64,-0.3 -1.24,-0.671 -1.334,-0.824 -0.095,-0.152 -0.392,-0.277 -0.661,-0.277 -0.268,0 -0.639,-0.182 -0.823,-0.403 -0.184,-0.222 -0.541,-0.404 -0.793,-0.404 -0.251,0 -0.742,-0.302 -1.09,-0.672 -0.347,-0.37 -1.395,-1.045 -2.328,-1.5 -0.934,-0.455 -1.766,-0.938 -1.85,-1.074 -0.085,-0.137 -0.341,-0.248 -0.569,-0.248 -0.229,0 -0.857,-0.337 -1.396,-0.749 -0.539,-0.412 -1.67,-1.09 -2.514,-1.505 -0.844,-0.416 -1.676,-0.926 -1.848,-1.133 -0.172,-0.207 -0.479,-0.377 -0.683,-0.377 -0.203,0 -0.37,-0.094 -0.37,-0.21 0,-0.115 -0.393,-0.377 -0.874,-0.581 -0.48,-0.205 -1.068,-0.463 -1.305,-0.574 -0.261,-0.122 -0.9,0.029 -1.613,0.38 m 3.254,1.223 c 0.518,0.314 1.304,0.754 1.748,0.977 0.443,0.224 0.988,0.52 1.209,0.658 0.222,0.138 2.097,1.227 4.167,2.419 2.07,1.191 3.945,2.288 4.167,2.437 0.222,0.149 0.766,0.454 1.209,0.678 0.444,0.223 1.17,0.642 1.613,0.931 0.444,0.289 1.049,0.648 1.344,0.798 0.296,0.149 0.72,0.386 0.941,0.526 0.854,0.539 8.22,4.776 8.602,4.948 0.222,0.101 1.009,0.548 1.748,0.994 0.739,0.447 1.737,1.012 2.217,1.256 l 0.874,0.444 -0.004,18.566 c -0.004,19.284 0.01,19.022 -1.077,19.494 -0.366,0.159 -1.029,0.526 -1.473,0.815 -0.443,0.288 -1.169,0.708 -1.613,0.931 -0.443,0.224 -0.987,0.53 -1.209,0.681 -0.65,0.442 -7.773,4.554 -9.678,5.586 -0.961,0.521 -1.938,1.111 -2.171,1.312 -0.234,0.201 -0.501,0.365 -0.594,0.365 -0.094,0 -1.778,0.945 -3.743,2.1 -1.965,1.155 -3.754,2.185 -3.975,2.288 -0.222,0.103 -0.767,0.423 -1.21,0.71 -0.444,0.288 -1.391,0.831 -2.104,1.207 -0.714,0.376 -1.558,0.865 -1.875,1.087 -0.317,0.222 -0.825,0.404 -1.129,0.404 -0.304,0 -0.812,-0.182 -1.129,-0.404 -0.317,-0.222 -1.16,-0.709 -1.874,-1.083 -0.714,-0.373 -1.479,-0.793 -1.701,-0.932 -1.226,-0.771 -6.439,-3.764 -6.556,-3.764 -0.076,0 -0.658,-0.333 -1.293,-0.739 -1.81,-1.157 -2.176,-1.376 -3.038,-1.809 -0.444,-0.224 -1.23,-0.662 -1.747,-0.975 -1.788,-1.081 -8.543,-4.998 -10.484,-6.079 -0.37,-0.206 -1.035,-0.608 -1.479,-0.894 -0.443,-0.286 -0.988,-0.6 -1.209,-0.698 -1.428,-0.631 -1.345,0.582 -1.345,-19.583 V 18.7 l 1.412,-0.738 c 0.776,-0.405 1.774,-0.962 2.218,-1.238 0.443,-0.276 1.108,-0.67 1.478,-0.876 1.614,-0.901 3.387,-1.918 6.099,-3.501 1.599,-0.933 3.088,-1.782 3.31,-1.886 0.221,-0.103 0.766,-0.425 1.209,-0.715 0.444,-0.289 1.17,-0.709 1.613,-0.932 0.444,-0.224 0.988,-0.529 1.21,-0.679 0.222,-0.151 2.399,-1.426 4.839,-2.834 2.439,-1.408 4.617,-2.678 4.838,-2.822 2.771,-1.799 3.804,-1.951 5.645,-0.834 m -2.79,2.936 c -0.073,0.119 -0.776,0.551 -1.561,0.961 -0.786,0.409 -1.912,1.043 -2.503,1.408 -0.592,0.365 -1.287,0.733 -1.546,0.817 -0.259,0.085 -0.471,0.262 -0.471,0.392 0,0.131 -0.132,0.238 -0.295,0.238 -0.162,0 -2.007,1.005 -4.099,2.234 -2.092,1.228 -3.986,2.323 -4.208,2.432 -0.221,0.109 -0.887,0.492 -1.478,0.851 -0.592,0.359 -1.317,0.764 -1.613,0.901 -0.296,0.137 -0.997,0.563 -1.558,0.947 -0.561,0.385 -1.088,0.699 -1.172,0.699 -0.084,0 -1.137,0.587 -2.34,1.304 -1.204,0.718 -2.37,1.388 -2.591,1.489 -0.659,0.302 -1.526,0.833 -1.988,1.216 -0.693,0.575 -0.655,33.353 0.039,33.941 0.476,0.404 6.937,4.224 8.669,5.126 0.518,0.269 1.304,0.726 1.747,1.016 0.444,0.289 0.988,0.61 1.21,0.714 0.468,0.218 7.465,4.267 8.065,4.667 0.221,0.148 0.766,0.45 1.209,0.671 0.444,0.221 0.988,0.518 1.21,0.66 0.372,0.239 4.726,2.71 5.644,3.204 0.257,0.138 0.886,-0.048 1.747,-0.516 1.505,-0.818 4.09,-2.292 4.706,-2.683 0.221,-0.141 0.998,-0.567 1.726,-0.948 0.727,-0.38 1.853,-1.049 2.5,-1.486 0.647,-0.437 1.245,-0.794 1.328,-0.794 0.083,0 1.135,-0.587 2.338,-1.304 1.204,-0.718 2.37,-1.384 2.592,-1.482 0.221,-0.097 0.766,-0.414 1.209,-0.703 0.444,-0.29 1.17,-0.709 1.613,-0.933 0.444,-0.223 0.988,-0.529 1.21,-0.678 1.475,-0.996 4.665,-2.696 5.059,-2.696 0.261,0 1.044,-0.515 1.74,-1.145 l 1.265,-1.146 V 37.4 c 0,-17.504 0.004,-17.444 -1.16,-17.444 -0.148,0 -5.332,-2.951 -6.635,-3.778 -0.222,-0.141 -0.705,-0.385 -1.074,-0.542 -0.369,-0.158 -1.035,-0.555 -1.479,-0.883 -0.444,-0.327 -1.11,-0.741 -1.48,-0.92 -0.369,-0.179 -0.853,-0.445 -1.075,-0.591 -1.364,-0.9 -8.36,-4.845 -8.591,-4.845 -0.154,0 -0.28,-0.095 -0.28,-0.21 0,-0.116 -0.333,-0.353 -0.739,-0.528 -0.407,-0.175 -0.921,-0.441 -1.143,-0.59 -2.85,-1.924 -5.41,-3.033 -5.747,-2.488 m 2.045,0.958 c 0.202,0.202 0.623,0.448 0.935,0.548 0.313,0.099 0.715,0.357 0.894,0.573 0.18,0.216 0.506,0.393 0.725,0.393 0.22,0 0.857,0.362 1.417,0.806 0.56,0.444 1.198,0.806 1.417,0.806 0.22,0 0.546,0.177 0.725,0.393 0.179,0.216 0.585,0.475 0.902,0.576 0.639,0.203 2.148,1.204 2.288,1.518 0.049,0.111 0.314,0.202 0.589,0.202 0.274,0 0.568,0.111 0.652,0.247 0.085,0.137 0.921,0.622 1.86,1.079 0.938,0.458 1.921,1.069 2.183,1.359 0.263,0.29 0.582,0.463 0.71,0.384 0.129,-0.079 0.233,-0.029 0.233,0.111 0,0.141 0.303,0.332 0.672,0.425 0.37,0.092 0.672,0.277 0.672,0.411 0,0.133 0.363,0.322 0.807,0.419 0.443,0.098 0.806,0.286 0.806,0.42 0,0.133 0.312,0.32 0.694,0.416 0.381,0.096 1.073,0.521 1.538,0.946 0.465,0.424 1.053,0.772 1.307,0.772 0.254,0 0.527,0.105 0.606,0.234 0.08,0.128 0.843,0.576 1.696,0.994 0.854,0.418 1.824,0.999 2.157,1.291 l 0.605,0.532 v 32.461 l -0.807,0.281 c -0.443,0.154 -0.806,0.442 -0.806,0.639 0,0.599 -0.802,1.202 -1.6,1.202 -0.414,0 -0.904,0.182 -1.089,0.403 -0.184,0.222 -0.554,0.404 -0.823,0.404 -0.269,0 -0.565,0.123 -0.658,0.273 -0.092,0.15 -0.553,0.441 -1.023,0.647 -0.471,0.206 -1.207,0.688 -1.637,1.071 -0.429,0.383 -0.997,0.697 -1.261,0.697 -0.264,0 -0.549,0.111 -0.633,0.248 -0.084,0.136 -0.937,0.629 -1.895,1.096 -0.957,0.467 -1.81,0.96 -1.894,1.096 -0.085,0.137 -0.395,0.248 -0.691,0.248 -0.338,0 -0.467,0.115 -0.346,0.31 0.109,0.177 0.075,0.238 -0.079,0.143 -0.15,-0.092 -0.552,0.131 -0.895,0.496 -0.343,0.365 -0.836,0.664 -1.095,0.664 -0.26,0 -0.637,0.165 -0.84,0.368 -0.202,0.202 -0.659,0.46 -1.014,0.573 -0.356,0.113 -0.813,0.371 -1.015,0.573 -0.202,0.202 -0.541,0.368 -0.752,0.368 -0.211,0 -0.384,0.121 -0.384,0.269 0,0.147 -0.167,0.268 -0.37,0.268 -0.204,0 -0.511,0.17 -0.683,0.377 -0.172,0.207 -1.004,0.717 -1.848,1.133 -0.844,0.415 -1.975,1.093 -2.514,1.505 -0.539,0.412 -1.308,0.749 -1.709,0.749 -0.401,0 -1.17,-0.337 -1.708,-0.749 -0.539,-0.412 -1.678,-1.093 -2.531,-1.514 -0.854,-0.42 -1.617,-0.869 -1.696,-0.998 -0.08,-0.129 -0.349,-0.234 -0.599,-0.235 -0.25,-10e-4 -0.825,-0.348 -1.277,-0.772 -0.452,-0.424 -1.112,-0.863 -1.466,-0.975 -0.354,-0.113 -0.809,-0.37 -1.012,-0.572 -0.202,-0.203 -0.57,-0.37 -0.819,-0.373 -0.248,-0.002 -0.735,-0.304 -1.083,-0.671 -0.348,-0.366 -0.759,-0.587 -0.915,-0.491 -0.166,0.102 -0.204,0.046 -0.091,-0.136 0.12,-0.195 -0.008,-0.31 -0.346,-0.31 -0.296,0 -0.603,-0.105 -0.682,-0.234 -0.08,-0.128 -0.843,-0.578 -1.696,-0.998 -0.854,-0.42 -1.975,-1.086 -2.493,-1.479 -0.517,-0.394 -1.338,-0.802 -1.823,-0.907 -0.486,-0.106 -1.269,-0.544 -1.74,-0.975 -0.472,-0.431 -1.042,-0.788 -1.268,-0.794 -0.226,-0.006 -0.829,-0.369 -1.341,-0.807 -0.512,-0.437 -1.078,-0.795 -1.258,-0.795 -0.18,0 -0.487,-0.153 -0.682,-0.339 -0.196,-0.187 -0.688,-0.487 -1.095,-0.667 L 79.8,53.838 V 21.394 l 0.605,-0.532 c 0.333,-0.292 1.303,-0.873 2.156,-1.291 0.854,-0.418 1.617,-0.866 1.696,-0.994 0.08,-0.129 0.353,-0.234 0.607,-0.234 0.254,0 0.859,-0.363 1.344,-0.807 0.486,-0.443 1.039,-0.806 1.229,-0.806 0.19,0 0.624,-0.242 0.965,-0.538 0.341,-0.295 0.844,-0.537 1.117,-0.537 0.273,0 0.496,-0.119 0.496,-0.264 0,-0.145 0.303,-0.34 0.672,-0.432 0.37,-0.093 0.672,-0.284 0.672,-0.425 0,-0.14 0.104,-0.191 0.23,-0.113 0.126,0.078 0.504,-0.151 0.84,-0.508 0.336,-0.357 0.958,-0.726 1.383,-0.819 0.425,-0.094 0.773,-0.273 0.773,-0.4 0,-0.126 0.272,-0.314 0.605,-0.417 0.333,-0.104 1.046,-0.535 1.584,-0.959 0.539,-0.424 1.159,-0.771 1.379,-0.771 0.219,0 0.549,-0.181 0.733,-0.403 0.184,-0.222 0.485,-0.403 0.669,-0.403 0.184,0 0.641,-0.242 1.017,-0.538 0.376,-0.296 0.829,-0.538 1.006,-0.538 0.177,0 0.763,-0.332 1.302,-0.739 0.538,-0.406 1.582,-1.041 2.319,-1.411 0.736,-0.37 1.501,-0.823 1.699,-1.008 0.48,-0.448 2.072,-0.429 2.533,0.032 m -2.723,1.257 c -0.622,0.45 -1.396,0.934 -1.721,1.074 -0.324,0.141 -0.832,0.397 -1.128,0.568 -0.962,0.558 -1.331,0.751 -2.15,1.124 -0.444,0.201 -1.187,0.687 -1.652,1.079 -0.465,0.392 -1.032,0.713 -1.261,0.713 -0.229,0 -0.485,0.111 -0.569,0.247 -0.084,0.137 -0.908,0.618 -1.83,1.07 -0.923,0.452 -2.029,1.127 -2.459,1.5 -0.429,0.372 -0.994,0.677 -1.254,0.677 -0.26,0 -0.514,0.099 -0.563,0.22 -0.049,0.121 -0.885,0.604 -1.857,1.074 -0.971,0.471 -2.051,1.158 -2.399,1.528 -0.347,0.37 -0.838,0.673 -1.09,0.673 -0.251,0 -0.608,0.181 -0.792,0.403 -0.184,0.222 -0.454,0.403 -0.599,0.403 -0.145,0 -0.82,0.375 -1.499,0.834 -0.679,0.458 -1.513,0.939 -1.853,1.068 l -0.619,0.236 v 15.346 c 0,10.382 -0.093,15.521 -0.287,15.885 -0.395,0.736 -0.036,1.107 2.055,2.125 0.947,0.461 1.79,0.95 1.874,1.086 0.084,0.137 0.339,0.248 0.565,0.248 0.227,0 0.72,0.242 1.096,0.538 0.376,0.296 0.841,0.538 1.034,0.538 0.193,0 0.748,0.362 1.233,0.806 0.486,0.444 1.068,0.807 1.294,0.808 0.225,0 0.775,0.343 1.221,0.761 0.446,0.418 1.142,0.844 1.546,0.945 0.404,0.101 0.735,0.293 0.735,0.427 0,0.133 0.371,0.324 0.824,0.423 0.454,0.1 0.89,0.351 0.97,0.559 0.08,0.208 0.412,0.378 0.738,0.378 0.326,0 0.94,0.363 1.365,0.807 0.425,0.443 0.943,0.806 1.151,0.806 0.208,0 0.685,0.242 1.061,0.538 0.376,0.295 0.834,0.537 1.018,0.537 0.183,0 0.484,0.182 0.668,0.403 0.184,0.222 0.543,0.404 0.798,0.404 0.254,0 0.814,0.306 1.244,0.679 0.429,0.374 1.645,1.098 2.701,1.61 l 1.921,0.929 1.811,-0.927 c 0.996,-0.51 2.181,-1.234 2.634,-1.609 0.452,-0.375 1.027,-0.682 1.276,-0.682 0.249,0 0.603,-0.182 0.787,-0.404 0.184,-0.221 0.485,-0.403 0.669,-0.403 0.184,0 0.642,-0.242 1.018,-0.537 0.376,-0.296 0.853,-0.538 1.061,-0.538 0.208,0 0.725,-0.363 1.15,-0.806 0.425,-0.444 1.04,-0.807 1.366,-0.807 0.326,0 0.662,-0.181 0.748,-0.403 0.085,-0.222 0.321,-0.403 0.526,-0.403 0.204,0 0.879,-0.369 1.501,-0.819 0.621,-0.45 1.396,-0.934 1.72,-1.075 0.325,-0.14 0.802,-0.377 1.061,-0.525 0.259,-0.148 0.682,-0.391 0.941,-0.539 0.259,-0.148 0.76,-0.394 1.114,-0.546 0.354,-0.152 1.097,-0.635 1.652,-1.074 0.554,-0.439 1.195,-0.799 1.424,-0.799 0.228,0 0.48,-0.105 0.56,-0.234 0.079,-0.128 0.843,-0.576 1.696,-0.994 2.198,-1.077 2.847,-1.682 2.344,-2.185 -0.331,-0.33 -0.389,-2.715 -0.389,-15.833 V 21.287 l -0.623,-0.237 c -0.342,-0.13 -1.098,-0.563 -1.68,-0.961 -0.582,-0.399 -1.3,-0.833 -1.595,-0.966 -0.296,-0.133 -0.75,-0.362 -1.008,-0.511 -0.259,-0.148 -0.682,-0.391 -0.941,-0.54 -0.259,-0.149 -0.773,-0.416 -1.143,-0.593 -0.369,-0.177 -1.112,-0.66 -1.651,-1.073 -0.539,-0.413 -1.099,-0.751 -1.244,-0.751 -0.146,0 -0.415,-0.182 -0.599,-0.404 -0.184,-0.221 -0.544,-0.403 -0.798,-0.403 -0.255,0 -0.743,-0.242 -1.084,-0.537 -0.341,-0.296 -0.788,-0.538 -0.993,-0.538 -0.206,0 -0.641,-0.256 -0.967,-0.569 -0.327,-0.313 -0.979,-0.735 -1.449,-0.937 -0.47,-0.202 -0.931,-0.49 -1.024,-0.64 -0.093,-0.151 -0.356,-0.273 -0.584,-0.273 -0.229,0 -0.796,-0.321 -1.261,-0.713 -0.465,-0.392 -1.209,-0.878 -1.652,-1.079 -0.76,-0.346 -1.074,-0.511 -2.218,-1.166 -0.259,-0.148 -0.736,-0.385 -1.061,-0.526 -0.324,-0.14 -1.099,-0.624 -1.72,-1.074 -0.622,-0.45 -1.275,-0.819 -1.453,-0.819 -0.177,0 -0.831,0.369 -1.452,0.819 m 2.931,0.649 c 0.222,0.193 0.675,0.433 1.008,0.535 0.333,0.101 0.605,0.289 0.605,0.417 0,0.128 0.25,0.312 0.555,0.409 0.306,0.097 1.87,0.951 3.477,1.899 1.607,0.948 2.984,1.724 3.06,1.724 0.076,0 0.659,0.349 1.295,0.777 0.636,0.427 2.002,1.228 3.037,1.78 1.035,0.552 2.073,1.17 2.307,1.374 0.233,0.203 0.504,0.37 0.601,0.37 0.097,0 1.479,0.767 3.07,1.704 1.591,0.937 3.075,1.785 3.297,1.885 0.221,0.099 0.766,0.42 1.209,0.712 0.444,0.292 0.958,0.607 1.143,0.698 0.457,0.226 0.496,31.56 0.039,31.56 -0.164,0 -0.835,0.363 -1.492,0.807 -0.657,0.443 -1.259,0.806 -1.337,0.806 -0.079,0 -1.857,1.008 -3.952,2.241 -2.095,1.232 -3.991,2.32 -4.213,2.418 -0.221,0.097 -0.584,0.296 -0.806,0.441 -0.691,0.454 -8.969,5.237 -9.677,5.591 -0.37,0.185 -1.035,0.575 -1.479,0.867 -0.443,0.292 -1.067,0.646 -1.385,0.787 -0.318,0.141 -0.658,0.385 -0.755,0.542 -0.097,0.157 -0.586,0.285 -1.086,0.285 -0.5,0 -0.988,-0.128 -1.085,-0.285 -0.097,-0.157 -0.437,-0.399 -0.755,-0.537 -0.319,-0.139 -0.76,-0.365 -0.982,-0.504 -1.509,-0.942 -6.422,-3.781 -6.544,-3.781 -0.083,0 -0.67,-0.346 -1.306,-0.769 -0.635,-0.422 -2.123,-1.291 -3.306,-1.93 -1.183,-0.639 -2.311,-1.322 -2.506,-1.517 -0.195,-0.195 -0.47,-0.354 -0.61,-0.354 -0.14,0 -0.767,-0.326 -1.392,-0.724 -1.035,-0.659 -2.103,-1.269 -4.363,-2.493 -0.444,-0.24 -1.318,-0.764 -1.944,-1.164 -0.625,-0.4 -1.26,-0.727 -1.411,-0.727 -0.436,0 -0.375,-31.344 0.062,-31.56 0.185,-0.091 0.699,-0.406 1.142,-0.698 0.444,-0.292 0.988,-0.616 1.21,-0.72 0.222,-0.104 2.157,-1.217 4.301,-2.474 2.144,-1.257 4.321,-2.506 4.839,-2.775 0.517,-0.27 1.122,-0.609 1.344,-0.755 1.232,-0.809 9.231,-5.373 9.418,-5.373 0.121,0 0.386,-0.165 0.588,-0.367 1.462,-1.462 3.765,-2.003 4.779,-1.122 m -3.972,2.437 c -1.076,0.662 -2.016,1.203 -2.089,1.203 -0.073,0 -2.459,1.367 -5.302,3.037 -2.843,1.671 -5.351,3.125 -5.573,3.231 -0.221,0.107 -0.887,0.488 -1.478,0.847 -0.592,0.359 -1.317,0.768 -1.613,0.909 -0.296,0.14 -0.997,0.57 -1.558,0.954 -0.561,0.385 -1.089,0.699 -1.174,0.699 -0.272,0 -3.443,1.972 -3.648,2.269 -0.371,0.535 -0.245,28.493 0.13,28.963 0.29,0.363 2.752,1.888 3.965,2.456 0.222,0.104 0.766,0.426 1.21,0.715 0.443,0.29 1.229,0.748 1.747,1.018 0.517,0.27 2.719,1.544 4.892,2.831 2.174,1.287 4.012,2.34 4.086,2.34 0.074,0 0.673,0.363 1.33,0.806 0.657,0.444 1.301,0.807 1.431,0.807 0.129,0 0.838,0.393 1.574,0.874 0.735,0.48 2.075,1.264 2.976,1.741 l 1.639,0.867 3.469,-2.034 c 1.908,-1.119 3.71,-2.144 4.006,-2.278 0.296,-0.135 0.719,-0.36 0.941,-0.5 0.795,-0.505 9.552,-5.577 9.946,-5.761 0.222,-0.104 0.645,-0.335 0.941,-0.514 0.296,-0.179 1.645,-0.963 2.997,-1.742 1.353,-0.779 2.533,-1.605 2.621,-1.836 0.234,-0.609 0.191,-28.414 -0.044,-28.753 -0.205,-0.297 -3.377,-2.269 -3.648,-2.269 -0.085,0 -0.614,-0.314 -1.175,-0.699 -0.561,-0.384 -1.262,-0.807 -1.557,-0.94 -0.296,-0.133 -0.719,-0.356 -0.941,-0.497 -0.658,-0.418 -9.434,-5.522 -10.82,-6.293 -2.444,-1.36 -3.811,-2.136 -5.105,-2.899 -1.687,-0.995 -1.858,-0.977 -4.176,0.448 m 3.244,-0.379 c 0.326,0.314 0.978,0.735 1.449,0.937 0.47,0.202 0.931,0.491 1.024,0.641 0.092,0.15 0.355,0.273 0.584,0.273 0.229,0 0.857,0.337 1.396,0.749 0.538,0.412 1.677,1.093 2.531,1.513 0.853,0.421 1.616,0.87 1.696,0.998 0.079,0.129 0.36,0.234 0.624,0.234 0.264,0 0.692,0.234 0.951,0.52 0.259,0.287 0.973,0.771 1.587,1.077 1.137,0.567 1.507,0.765 2.461,1.318 0.296,0.172 0.813,0.431 1.149,0.576 0.337,0.146 0.876,0.511 1.199,0.811 0.322,0.301 1.346,0.917 2.275,1.369 0.929,0.453 1.757,0.934 1.842,1.071 0.084,0.136 0.345,0.247 0.58,0.247 0.234,0 0.953,0.432 1.597,0.959 l 1.17,0.959 v 13.742 c 0,15.044 0.006,14.986 -1.627,14.986 -0.252,0 -0.608,0.181 -0.792,0.403 -0.185,0.222 -0.454,0.403 -0.599,0.403 -0.145,0 -0.82,0.375 -1.499,0.834 -0.679,0.458 -1.483,0.941 -1.787,1.074 -0.303,0.133 -0.763,0.363 -1.021,0.511 -1.128,0.646 -1.457,0.82 -2.218,1.175 -0.444,0.206 -1.058,0.617 -1.365,0.912 -0.307,0.294 -0.851,0.627 -1.21,0.739 -0.358,0.112 -0.711,0.292 -0.785,0.4 -0.074,0.107 -0.944,0.584 -1.933,1.059 -0.989,0.475 -1.957,1.055 -2.151,1.288 -0.193,0.234 -0.715,0.589 -1.158,0.79 -0.444,0.201 -1.018,0.485 -1.277,0.631 -0.259,0.145 -0.682,0.384 -0.941,0.529 -0.259,0.146 -0.833,0.43 -1.277,0.632 -0.443,0.201 -1.187,0.687 -1.652,1.079 -0.938,0.791 -2.257,0.943 -2.775,0.32 -0.179,-0.216 -0.587,-0.474 -0.906,-0.574 -0.32,-0.099 -1.022,-0.527 -1.56,-0.951 -0.539,-0.424 -1.159,-0.77 -1.379,-0.77 -0.219,0 -0.549,-0.182 -0.733,-0.404 -0.184,-0.221 -0.497,-0.403 -0.696,-0.403 -0.198,0 -0.758,-0.336 -1.244,-0.747 -0.485,-0.41 -1.639,-1.106 -2.562,-1.545 -0.924,-0.44 -1.68,-0.89 -1.68,-1.001 -0.001,-0.111 -0.224,-0.202 -0.497,-0.202 -0.273,0 -0.847,-0.313 -1.277,-0.696 C 93.996,57.586 93.281,57.1 92.838,56.89 92.075,56.528 91.734,56.346 90.62,55.708 90.361,55.56 89.901,55.33 89.598,55.197 c -0.303,-0.133 -1.107,-0.616 -1.786,-1.074 -0.679,-0.459 -1.354,-0.834 -1.499,-0.834 -0.145,0 -0.415,-0.181 -0.599,-0.403 -0.184,-0.222 -0.524,-0.403 -0.755,-0.403 -0.231,0 -0.7,-0.263 -1.042,-0.585 L 83.295,51.314 V 23.905 l 1.12,-1.034 c 0.616,-0.568 1.331,-1.034 1.59,-1.034 0.259,0 0.511,-0.098 0.56,-0.219 0.05,-0.121 0.881,-0.603 1.849,-1.071 0.967,-0.468 2.022,-1.096 2.345,-1.397 0.322,-0.3 0.862,-0.665 1.198,-0.811 0.337,-0.145 0.824,-0.385 1.082,-0.533 1.204,-0.689 1.482,-0.839 2.528,-1.361 0.614,-0.306 1.329,-0.79 1.588,-1.077 0.259,-0.286 0.679,-0.52 0.933,-0.52 0.255,0 0.614,-0.181 0.798,-0.403 0.184,-0.222 0.483,-0.403 0.665,-0.403 0.181,0 0.838,-0.369 1.46,-0.819 0.621,-0.45 1.395,-0.934 1.72,-1.074 0.571,-0.248 0.777,-0.357 1.935,-1.018 0.295,-0.169 0.9,-0.475 1.344,-0.681 0.443,-0.206 1.048,-0.624 1.344,-0.929 0.686,-0.708 0.835,-0.709 1.557,-0.018"
       fill="#b0b28c"
       fill-rule="evenodd"
       id="path322" />
    <g
       id="g511">
      <path
         d="m 106.142,18.281 c -2.547,0.131 -2.711,0.599 -0.21,0.599 3.154,0 2.898,-0.538 2.898,6.1 0,4.499 0.075,5.749 0.336,5.662 0.249,-0.083 0.372,-1.545 0.471,-5.591 l 0.134,-5.479 0.739,-0.413 c 0.665,-0.371 0.814,-0.371 1.479,0 l 0.739,0.414 0.068,7.785 c 0.091,10.421 0.437,10.595 0.604,0.304 0.122,-7.51 0.179,-8.32 0.608,-8.634 1.113,-0.813 -1.586,-1.069 -7.866,-0.747 m -7.213,2.179 c -0.678,0.43 0.445,0.571 4.547,0.571 3.385,0 4.01,-0.063 4.01,-0.403 0,-0.455 -7.861,-0.61 -8.557,-0.168 m 16.084,0.168 c 0,0.344 0.236,0.417 1.143,0.351 0.628,-0.045 1.142,-0.203 1.142,-0.351 0,-0.148 -0.514,-0.306 -1.142,-0.352 -0.907,-0.065 -1.143,0.007 -1.143,0.352 m -14.185,2.062 c -0.182,0.182 -0.331,0.729 -0.331,1.217 0,0.488 -0.13,0.887 -0.289,0.887 -0.171,0 -0.254,-0.412 -0.203,-1.004 0.165,-1.922 -0.67,-1.422 -1.548,0.926 l -0.783,2.095 -0.071,14.18 -0.072,14.18 h 10.197 c 5.609,0 10.39,-0.074 10.623,-0.163 0.483,-0.185 0.663,-27.334 0.188,-28.268 -0.13,-0.257 -0.51,-1.193 -0.843,-2.08 -0.666,-1.775 -1.127,-2.285 -2.062,-2.285 h -0.621 v 7.124 c 0,7.998 -0.048,8.199 -1.958,8.199 -1.293,0 -1.805,-1.009 -1.805,-3.559 0,-2.33 -0.052,-2.422 -1.072,-1.913 -0.81,0.404 -2.009,0.266 -2.358,-0.27 -0.11,-0.169 -0.26,-2.363 -0.334,-4.877 l -0.134,-4.569 -3.097,-0.076 c -2.18,-0.053 -3.195,0.023 -3.427,0.256 m -1.137,3.583 c 0,0.517 -0.121,0.941 -0.269,0.941 -0.148,0 -0.269,-0.424 -0.269,-0.941 0,-0.518 0.121,-0.941 0.269,-0.941 0.148,0 0.269,0.423 0.269,0.941 m 11.559,12.802 c -0.462,1.271 -0.122,8.166 0.403,8.166 0.628,0 0.99,-7.357 0.398,-8.071 -0.29,-0.349 0.134,-0.896 0.449,-0.58 0.221,0.221 0.215,8.641 -0.007,9 -0.247,0.4 -1.417,0.425 -1.658,0.036 -0.132,-0.215 -0.244,-7.416 -0.138,-8.943 0.008,-0.123 0.166,-0.168 0.351,-0.1 0.185,0.067 0.276,0.289 0.202,0.492 m -13.306,17.17 c -0.093,0.15 -0.01,0.335 0.185,0.41 0.696,0.267 20.244,0.002 20.244,-0.275 0,-0.374 -20.198,-0.508 -20.429,-0.135"
         fill="#ed312c"
         fill-rule="evenodd"
         id="path320" />
      <path
         d="m 104.072,17.456 c -0.326,0.063 -0.669,0.355 -0.762,0.648 -0.312,0.985 0.306,1.289 2.79,1.371 l 2.327,0.078 0.073,5.76 c 0.046,3.657 -0.028,5.861 -0.202,6.035 -0.186,0.187 -0.293,-1.141 -0.332,-4.148 -0.049,-3.819 -0.088,-5.212 -0.19,-6.914 -0.016,-0.267 -1.078,-0.326 -4.792,-0.269 l -4.772,0.073 -0.085,0.741 c -0.056,0.483 0.061,0.797 0.336,0.902 0.533,0.205 0.541,0.746 0.018,1.18 -0.222,0.184 -0.403,0.703 -0.403,1.154 0,0.451 -0.212,1.053 -0.471,1.339 -0.435,0.481 -0.474,1.671 -0.525,15.805 l -0.054,15.285 0.768,0.547 c 1.195,0.851 19.531,0.85 20.727,-10e-4 l 0.77,-0.548 -0.057,-15.284 c -0.052,-14.132 -0.092,-15.323 -0.527,-15.804 -0.258,-0.286 -0.47,-0.73 -0.47,-0.988 0,-0.258 -0.181,-0.65 -0.403,-0.872 -0.528,-0.527 -0.517,-1.607 0.018,-1.813 1.329,-0.51 0.297,-1.643 -1.497,-1.643 h -1.747 l -0.01,1.21 c -0.006,0.665 -0.036,4.385 -0.068,8.266 -0.036,4.487 -0.154,7.056 -0.325,7.056 -0.486,0 -0.355,-16.798 0.134,-17.204 0.644,-0.534 0.516,-1.789 -0.202,-1.981 -0.668,-0.179 -9.128,-0.164 -10.067,0.019 m 10.07,0.956 c 0.267,0.212 0.238,0.345 -0.134,0.616 -0.429,0.314 -0.486,1.124 -0.608,8.634 -0.167,10.291 -0.513,10.117 -0.604,-0.304 l -0.068,-7.785 -0.739,-0.414 c -0.665,-0.371 -0.814,-0.371 -1.479,0 l -0.739,0.413 -0.134,5.479 c -0.099,4.046 -0.222,5.508 -0.471,5.591 -0.261,0.087 -0.336,-1.163 -0.336,-5.662 0,-6.638 0.256,-6.1 -2.898,-6.1 -2.501,0 -2.337,-0.468 0.21,-0.599 3.73,-0.191 7.677,-0.127 8,0.131 m -6.656,2.216 c 0,0.34 -0.625,0.403 -4.01,0.403 -4.102,0 -5.225,-0.141 -4.547,-0.571 0.696,-0.442 8.557,-0.287 8.557,0.168 m 9.812,0 c 0,0.148 -0.514,0.306 -1.142,0.351 -0.907,0.066 -1.143,-0.007 -1.143,-0.351 0,-0.345 0.236,-0.417 1.143,-0.352 0.628,0.046 1.142,0.204 1.142,0.352 m -9.812,6.451 c 0.074,2.514 0.224,4.708 0.334,4.877 0.349,0.536 1.548,0.674 2.358,0.27 1.02,-0.509 1.072,-0.417 1.072,1.913 0,2.55 0.512,3.559 1.805,3.559 1.91,0 1.958,-0.201 1.958,-8.199 v -7.124 h 0.621 c 0.935,0 1.396,0.51 2.062,2.285 0.333,0.887 0.713,1.823 0.843,2.08 0.475,0.934 0.295,28.083 -0.188,28.268 -0.233,0.089 -5.014,0.163 -10.623,0.163 H 97.531 l 0.072,-14.18 0.071,-14.18 0.783,-2.095 c 0.878,-2.348 1.713,-2.848 1.548,-0.926 -0.051,0.592 0.032,1.004 0.203,1.004 0.159,0 0.289,-0.399 0.289,-0.887 0,-1.434 0.312,-1.556 3.758,-1.473 l 3.097,0.076 0.134,4.569 m -8.333,-0.806 c 0,0.517 0.121,0.941 0.269,0.941 0.148,0 0.269,-0.424 0.269,-0.941 0,-0.518 -0.121,-0.941 -0.269,-0.941 -0.148,0 -0.269,0.423 -0.269,0.941 m 11.544,12.41 c -0.106,1.527 0.006,8.728 0.138,8.943 0.241,0.389 1.411,0.364 1.658,-0.036 0.222,-0.359 0.228,-8.779 0.007,-9 -0.315,-0.316 -0.739,0.231 -0.449,0.58 0.592,0.714 0.23,8.071 -0.398,8.071 -0.525,0 -0.865,-6.895 -0.403,-8.166 0.074,-0.203 -0.017,-0.425 -0.202,-0.492 -0.185,-0.068 -0.343,-0.023 -0.351,0.1 m 7.676,17.697 c 0,0.277 -19.548,0.542 -20.244,0.275 -0.195,-0.075 -0.278,-0.26 -0.185,-0.41 0.231,-0.373 20.429,-0.239 20.429,0.135"
         fill="#fa9870"
         fill-rule="evenodd"
         id="path324" />
    </g>
  </g>
  <text
     x="-35.15443"
     y="-9.2882509"
     font-family="FreeMono"
     font-size="40px"
     style="line-height:1.25"
     xml:space="preserve"
     id="text328"><tspan
       x="-35.15443"
       y="-9.2882509"
       id="tspan326" /></text>
  <text
     x="69.304588"
     y="51.714211"
     fill="#329885"
     font-family="Fasthand"
     font-size="39.8965px"
     stroke="#b0b28c"
     stroke-width="0.997424"
     style="line-height:1.25"
     xml:space="preserve"
     id="text332"><tspan
       x="69.304588"
       y="51.714211"
       stroke-width="0.997424"
       id="tspan330">One Stop Pop Shop</tspan></text>
</svg>
